<svg width="36" height="36" viewBox="0 0 36 36" fill="none" xmlns="http://www.w3.org/2000/svg">
<path d="M21 27.375H15C14.385 27.375 13.875 26.865 13.875 26.25C13.875 25.635 14.385 25.125 15 25.125H21C21.615 25.125 22.125 25.635 22.125 26.25C22.125 26.865 21.615 27.375 21 27.375Z" fill="#243665"/>
<path d="M3 27.375C2.385 27.375 1.875 26.865 1.875 26.25V11.25C1.875 4.635 3.885 2.625 10.5 2.625C11.115 2.625 11.625 3.135 11.625 3.75C11.625 4.365 11.115 4.875 10.5 4.875C5.145 4.875 4.125 5.88 4.125 11.25V26.25C4.125 26.865 3.615 27.375 3 27.375Z" fill="#243665"/>
<path d="M33 27.375C32.385 27.375 31.875 26.865 31.875 26.25V11.25C31.875 5.88 30.855 4.875 25.5 4.875C24.885 4.875 24.375 4.365 24.375 3.75C24.375 3.135 24.885 2.625 25.5 2.625C32.115 2.625 34.125 4.635 34.125 11.25V26.25C34.125 26.865 33.615 27.375 33 27.375Z" fill="#243665"/>
<path d="M10.8 34.125H7.2C3.57 34.125 1.875 32.43 1.875 28.8V23.865C1.875 20.235 3.57 18.54 7.2 18.54H10.8C14.43 18.54 16.125 20.235 16.125 23.865V28.8C16.125 32.43 14.43 34.125 10.8 34.125ZM7.2 20.79C4.815 20.79 4.125 21.48 4.125 23.865V28.8C4.125 31.185 4.815 31.875 7.2 31.875H10.8C13.185 31.875 13.875 31.185 13.875 28.8V23.865C13.875 21.48 13.185 20.79 10.8 20.79H7.2Z" fill="#243665"/>
<path d="M28.8 34.125H25.2C21.57 34.125 19.875 32.43 19.875 28.8V23.865C19.875 20.235 21.57 18.54 25.2 18.54H28.8C32.43 18.54 34.125 20.235 34.125 23.865V28.8C34.125 32.43 32.43 34.125 28.8 34.125ZM25.2 20.79C22.815 20.79 22.125 21.48 22.125 23.865V28.8C22.125 31.185 22.815 31.875 25.2 31.875H28.8C31.185 31.875 31.875 31.185 31.875 28.8V23.865C31.875 21.48 31.185 20.79 28.8 20.79H25.2Z" fill="#243665"/>
</svg>
