<?xml version="1.0" standalone="no"?>
<!DOCTYPE svg PUBLIC "-//W3C//DTD SVG 20010904//EN"
 "http://www.w3.org/TR/2001/REC-SVG-20010904/DTD/svg10.dtd">
<svg version="1.0" xmlns="http://www.w3.org/2000/svg"
 width="1763.000000pt" height="1763.000000pt" viewBox="0 0 1763.000000 1763.000000"
 preserveAspectRatio="xMidYMid meet">
<metadata>
Created by potrace 1.14, written by Peter Selinger 2001-2017
</metadata>
<g transform="translate(0.000000,1763.000000) scale(0.100000,-0.100000)"
fill="#000000" stroke="none">
<path d="M3 14360 l0 -2740 2144 0 2143 0 0 -3470 0 -3470 823 0 822 0 -2
4132 c-1 2273 -2 4205 -3 4293 l0 160 -2142 0 -2143 0 0 1095 0 1095 3195 0
3195 0 3 -5388 2 -5387 2714 0 2713 0 1 3443 c0 1893 1 3454 1 3470 l1 27
2078 0 2077 0 0 2740 0 2740 -2900 0 -2900 0 0 -820 0 -820 25 -1 c14 0 949 0
2078 -1 l2052 0 1 -22 c4 -128 1 -2155 -4 -2162 -3 -5 -846 -9 -2076 -9 -1139
0 -2072 -2 -2072 -5 -1 -3 -2 -1564 -3 -3470 l-1 -3465 -1070 0 -1070 0 -2
5375 c-1 2956 -2 5381 -2 5388 -1 9 -976 12 -4839 12 l-4839 0 0 -2740z"/>
<path d="M12003 3442 l-43 -3 0 -1200 0 -1199 745 0 c589 0 745 3 745 13 1 21
1 441 1 472 l-1 30 -427 0 -428 0 -3 223 -2 222 380 0 380 0 1 73 c1 82 1 438
0 450 -1 4 -172 7 -381 7 l-380 0 0 195 0 195 425 -2 c234 -1 428 1 431 5 8 7
9 506 1 513 -6 6 -1369 11 -1444 6z"/>
<path d="M5388 3435 c-1 -2 -27 -6 -57 -9 -165 -18 -378 -106 -530 -219 -258
-192 -438 -496 -478 -805 -15 -122 -7 -320 17 -412 5 -19 11 -46 14 -60 6 -33
38 -122 66 -184 24 -52 107 -197 119 -206 3 -3 19 -23 35 -45 33 -44 195 -205
207 -205 4 0 14 -6 21 -13 101 -93 362 -200 543 -223 76 -10 265 -10 330 -1
100 14 121 19 210 49 163 55 335 156 452 266 l32 30 -225 221 -225 222 -42
-34 c-95 -76 -186 -112 -312 -122 -252 -21 -478 109 -566 326 -84 206 -47 456
89 605 88 97 189 152 327 179 37 7 161 7 195 0 14 -3 38 -8 54 -11 72 -13 246
-110 246 -138 0 -5 102 92 226 217 l225 227 -38 37 c-146 143 -385 259 -609
297 -76 13 -315 21 -326 11z"/>
<path d="M7774 3383 c-47 -103 -81 -176 -124 -268 -23 -49 -70 -151 -105 -225
-35 -74 -82 -175 -105 -225 -40 -86 -65 -139 -129 -277 -16 -35 -50 -108 -76
-163 -26 -55 -73 -156 -105 -225 -32 -69 -78 -168 -103 -220 -24 -52 -54 -116
-65 -141 -12 -25 -45 -97 -75 -160 -29 -63 -69 -147 -88 -188 -18 -41 -53
-113 -75 -160 -23 -47 -39 -88 -37 -91 2 -2 144 -5 315 -5 l312 0 41 90 c23
49 56 120 73 158 l31 67 490 0 489 0 25 -52 c14 -29 47 -100 74 -158 l49 -105
315 1 c173 1 315 2 316 3 1 1 -123 267 -248 530 -32 68 -59 125 -59 127 0 2
-29 63 -64 136 -64 134 -112 235 -171 363 -62 134 -107 231 -152 325 -25 52
-63 133 -85 180 -22 47 -58 123 -80 170 -22 47 -55 117 -73 155 -18 39 -52
111 -75 160 -24 50 -60 127 -81 173 l-38 82 -146 0 -145 0 -26 -57z m196
-1013 c0 -5 20 -50 44 -102 24 -51 55 -118 69 -148 14 -30 43 -94 66 -142 22
-49 39 -89 38 -89 -8 -5 -460 -3 -468 2 -5 3 6 36 25 75 19 38 44 92 56 119
13 28 49 105 81 173 33 68 59 128 59 134 0 6 6 6 15 -2 8 -7 15 -16 15 -20z"/>
<path d="M9544 2243 l1 -1198 315 -3 315 -2 0 307 c-1 170 0 313 2 318 3 10
377 15 386 5 3 -3 21 -32 40 -65 18 -33 100 -174 181 -312 l148 -253 364 0
365 0 -25 42 c-47 83 -159 273 -177 303 -10 17 -24 41 -32 55 -20 36 -144 249
-210 361 -32 53 -57 100 -57 106 0 6 20 31 43 56 111 115 194 287 221 456 72
447 -207 872 -654 997 -59 16 -122 18 -646 22 l-581 3 1 -1198z m1160 632
c170 -84 241 -263 175 -439 -27 -73 -100 -148 -176 -183 -57 -26 -64 -27 -290
-30 -128 -2 -234 0 -234 4 -3 21 -5 660 -1 669 2 9 69 11 235 10 l232 -2 59
-29z"/>
</g>
</svg>
